<svg xmlns="http://www.w3.org/2000/svg" version="1.1" xmlns:xlink="http://www.w3.org/1999/xlink" xmlns:svgjs="http://svgjs.dev/svgjs" width="1500" height="1500" viewBox="0 0 1500 1500"><g transform="matrix(1,0,0,1,-0.323615160350073,-0.3236151603499593)"><svg viewBox="0 0 343 343" data-background-color="#ffffff" preserveAspectRatio="xMidYMid meet" height="1500" width="1500" xmlns="http://www.w3.org/2000/svg" xmlns:xlink="http://www.w3.org/1999/xlink"><g id="tight-bounds" transform="matrix(1,0,0,1,0.0740000000000407,0.07400000000001228)"><svg viewBox="0 0 342.85155851775386 342.85155851775386" height="342.85155851775386" width="342.85155851775386"><g><svg></svg></g><g><svg viewBox="0 0 342.85155851775386 342.85155851775386" height="342.85155851775386" width="342.85155851775386"><g><path d="M0 171.426c0-94.676 76.75-171.426 171.426-171.426 94.676 0 171.426 76.75 171.426 171.426 0 94.676-76.75 171.426-171.426 171.426-94.676 0-171.426-76.75-171.426-171.426zM171.426 338.656c92.359 0 167.23-74.871 167.23-167.23 0-92.359-74.871-167.23-167.23-167.23-92.359 0-167.23 74.871-167.23 167.23 0 92.359 74.871 167.23 167.23 167.23z" data-fill-palette-color="tertiary" fill="#096a2e" stroke="transparent"></path><ellipse rx="164.56874808852186" ry="164.56874808852186" cx="171.42577925887693" cy="171.42577925887693" fill="#096a2e" stroke="transparent" stroke-width="0" fill-opacity="1" data-fill-palette-color="tertiary"></ellipse></g><g transform="matrix(1,0,0,1,64.84655864529837,110.51956086160496)"><svg viewBox="0 0 213.1584412271571 121.81243679454394" height="121.81243679454394" width="213.1584412271571"><g><svg viewBox="0 0 213.1584412271571 121.81243679454394" height="121.81243679454394" width="213.1584412271571"><g><svg viewBox="0 0 213.1584412271571 121.81243679454394" height="121.81243679454394" width="213.1584412271571"><g transform="matrix(1,0,0,1,0,75.28497281162521)"><svg viewBox="0 0 213.1584412271571 46.527463982918725" height="46.527463982918725" width="213.1584412271571"><g id="textblocktransform"><svg viewBox="0 0 213.1584412271571 46.527463982918725" height="46.527463982918725" width="213.1584412271571" id="textblock"><g><svg viewBox="0 0 213.1584412271571 46.527463982918725" height="46.527463982918725" width="213.1584412271571"><g transform="matrix(1,0,0,1,0,0)"><svg width="213.1584412271571" viewBox="1.89375 -37.8 177.73624999999998 38.8" height="46.527463982918725" data-palette-color="#ffffff"><path d="M20.4-16.5L11.1-16.5 11.1-2.25 25.6-2.25 26.65-8.9Q27.25-9 27.58-8.97 27.9-8.95 28.4-8.75L28.4-8.75Q28.8-6.95 28.9-5.15 29-3.35 29-1.55L29-1.55 29 0 8.6 0Q7.2 0 5.28 0.08 3.35 0.15 1.95 0.25L1.95 0.25Q1.8-0.7 2.05-1.5L2.05-1.5Q3-1.7 3.95-1.93 4.9-2.15 5.85-2.5L5.85-2.5 5.85-32.5 2-33.5Q1.85-34.45 2.25-35.25L2.25-35.25Q3.6-35.2 5.28-35.1 6.95-35 8.35-35L8.35-35 27.6-35Q27.65-32.8 27.55-30.6 27.45-28.4 27.05-26.25L27.05-26.25Q26.55-26.05 26.2-26.05 25.85-26.05 25.25-26.1L25.25-26.1 23.95-32.75 11.1-32.75 11.1-19.25 20.4-19.25 21.35-23.65Q21.8-23.8 22.35-23.78 22.9-23.75 23.35-23.4L23.35-23.4Q23.25-22.3 23.2-20.9 23.15-19.5 23.15-18.05L23.15-18.05Q23.15-16.45 23.2-14.9 23.25-13.35 23.35-12.15L23.35-12.15Q22.9-11.95 22.35-11.95 21.8-11.95 21.35-12.05L21.35-12.05 20.4-16.5ZM40.7-37.25L40.7-2.5 44.55-1.5Q44.7-0.55 44.3 0.25L44.3 0.25Q42.95 0.15 41.27 0.08 39.6 0 38.2 0L38.2 0Q36.8 0 35.15 0.08 33.5 0.15 32.1 0.25L32.1 0.25Q31.95-0.7 32.2-1.5L32.2-1.5Q33.15-1.75 34.07-1.95 35-2.15 35.7-2.5L35.7-2.5 35.7-34.3 31.55-34.7Q31.4-35.7 31.8-36.45L31.8-36.45Q33.6-36.7 35.42-37.05 37.25-37.4 38.8-37.8L38.8-37.8Q39.3-37.75 39.75-37.63 40.2-37.5 40.7-37.25L40.7-37.25ZM53.8 0.85L53.8 0.85Q50.8 0.85 48.74-0.73 46.7-2.3 46.7-5.5L46.7-5.5Q46.7-8 47.92-9.6 49.15-11.2 51.22-12.08 53.3-12.95 55.84-13.25 58.4-13.55 61.05-13.5L61.05-13.5 61.09-17.9Q61.15-20.7 60.05-22.23 58.95-23.75 56.7-23.75L56.7-23.75Q55.45-23.75 54.3-23.58 53.15-23.4 52-23L52-23 51.34-17.7Q50.95-17.5 50.25-17.48 49.55-17.45 49.15-17.5L49.15-17.5Q48.7-19.15 48.4-20.8 48.09-22.45 48.15-24L48.15-24Q50.5-25.1 52.87-25.55 55.25-26 58.05-26L58.05-26Q60.84-26 62.57-25.1 64.3-24.2 65.12-22 65.94-19.8 65.94-15.85L65.94-15.85 65.94-2.45Q66.8-2.05 67.69-1.88 68.59-1.7 69.44-1.45L69.44-1.45Q69.59-0.5 69.19 0.3L69.19 0.3Q68.4 0.45 67.27 0.55 66.15 0.65 65 0.65L65 0.65Q63.34 0.65 62.14 0.35L62.14 0.35 61.45-2.25 61.25-2.25Q60-0.95 58.15-0.05 56.3 0.85 53.8 0.85ZM55.7-1.9L55.7-1.9Q57.09-1.9 58.7-2.78 60.3-3.65 61.05-4.75L61.05-4.75 61.05-11.5Q55.9-11.5 53.8-10.28 51.7-9.05 51.7-6L51.7-6Q51.7-3.95 52.8-2.93 53.9-1.9 55.7-1.9ZM78.34-37.25L78.34-22.75 78.59-22.5Q80.59-24.25 82.49-24.88 84.39-25.5 86.09-25.5L86.09-25.5Q89.34-25.5 91.69-23.9 94.04-22.3 95.32-19.38 96.59-16.45 96.59-12.45L96.59-12.45Q96.59-8.1 94.87-5.1 93.14-2.1 90.12-0.55 87.09 1 83.09 1L83.09 1Q81.04 1 78.37 0.5 75.69 0 73.59-0.9L73.59-0.9 73.59-34.3 69.44-34.7Q69.29-35.7 69.69-36.45L69.69-36.45Q71.49-36.7 73.14-37.05 74.79-37.4 76.34-37.8L76.34-37.8Q77.29-37.75 78.34-37.25L78.34-37.25ZM78.59-19.6L78.59-2.15Q79.69-1.65 80.79-1.33 81.89-1 83.59-1L83.59-1Q87.14-1 89.19-4 91.24-7 91.24-12.45L91.24-12.45Q91.24-17.7 89.27-20.13 87.29-22.55 84.59-22.55L84.59-22.55Q83.34-22.55 82.14-22.08 80.94-21.6 79.99-20.93 79.04-20.25 78.59-19.6L78.59-19.6ZM109.69-2.75L121.69-2.75 123.04-8.9Q123.64-9 123.99-8.97 124.34-8.95 124.84-8.75L124.84-8.75Q125.14-6.6 125.24-4.4 125.34-2.2 125.34 0L125.34 0 107.19 0Q105.79 0 103.87 0.08 101.94 0.15 100.54 0.25L100.54 0.25Q100.39-0.7 100.64-1.5L100.64-1.5Q101.74-1.75 102.72-1.95 103.69-2.15 104.44-2.5L104.44-2.5 104.44-32.5 100.59-33.5Q100.44-34.45 100.84-35.25L100.84-35.25Q102.19-35.2 103.87-35.1 105.54-35 106.94-35L106.94-35Q108.39-35 110.39-35.1 112.39-35.2 113.79-35.25L113.79-35.25Q113.94-34.3 113.69-33.5L113.69-33.5Q112.69-33.4 111.69-33.23 110.69-33.05 109.69-32.5L109.69-32.5 109.69-2.75ZM136.19-24.95L136.19-2.5 139.54-1.5Q139.69-0.55 139.29 0.25L139.29 0.25Q137.94 0.15 136.51 0.08 135.09 0 133.69 0L133.69 0Q132.29 0 130.64 0.08 128.99 0.15 127.59 0.25L127.59 0.25Q127.44-0.7 127.69-1.5L127.69-1.5Q128.64-1.75 129.56-1.95 130.49-2.15 131.19-2.5L131.19-2.5 131.19-22 127.04-22.4Q126.89-23.4 127.29-24.15L127.29-24.15Q129.09-24.4 130.91-24.75 132.74-25.1 134.29-25.5L134.29-25.5Q134.79-25.45 135.24-25.33 135.69-25.2 136.19-24.95L136.19-24.95ZM132.84-30.05L132.84-30.05Q131.99-30.05 131.29-30.6 130.59-31.15 130.19-31.95 129.79-32.75 129.79-33.45L129.79-33.45Q129.79-34.1 130.34-34.77 130.89-35.45 131.71-35.93 132.54-36.4 133.34-36.4L133.34-36.4Q134.24-36.4 134.94-35.83 135.64-35.25 136.01-34.48 136.39-33.7 136.39-33L136.39-33Q136.39-32.35 135.86-31.65 135.34-30.95 134.51-30.5 133.69-30.05 132.84-30.05ZM150.64 0.8L150.64 0.8Q149.04 0.8 147.74 0.2 146.44-0.4 145.71-1.88 144.99-3.35 144.99-5.95L144.99-5.95 144.99-21.9 141.49-21.9Q141.19-22.45 141.16-23.03 141.14-23.6 141.24-24.15L141.24-24.15Q143.34-24.15 144.39-24.7 145.44-25.25 146.01-26.6 146.59-27.95 147.24-30.25L147.24-30.25 149.89-30.25 149.89-24.65 155.14-24.65Q155.84-23.2 155.14-21.9L155.14-21.9 149.89-21.9 149.89-7.2Q149.89-4.9 150.11-3.73 150.34-2.55 150.89-2.13 151.44-1.7 152.39-1.7L152.39-1.7Q153.19-1.7 153.94-2 154.69-2.3 155.39-2.7L155.39-2.7Q156.09-2.25 156.14-1.2L156.14-1.2Q155.59-0.55 154.14 0.13 152.69 0.8 150.64 0.8ZM163.78-13.5L163.78-12.5Q163.78-7.45 165.81-4.67 167.83-1.9 171.33-1.9L171.33-1.9Q172.88-1.9 173.93-2.08 174.98-2.25 176.01-2.75 177.03-3.25 178.33-4.15L178.33-4.15Q179.13-3.8 179.23-2.95L179.23-2.95Q177.68-1.15 175.53-0.15 173.38 0.85 171.18 0.85L171.18 0.85Q167.38 0.85 164.53-0.75 161.68-2.35 160.08-5.35 158.48-8.35 158.48-12.5L158.48-12.5Q158.48-16.75 160.16-19.73 161.83-22.7 164.66-24.28 167.48-25.85 170.93-25.85L170.93-25.85Q175.38-25.85 177.51-22.88 179.63-19.9 179.63-15.2L179.63-15.2Q179.63-14.85 179.63-14.55 179.63-14.25 179.58-13.9L179.58-13.9 178.88-13.35 163.78-13.5ZM170.88-23.7L170.88-23.7Q169.43-23.7 168.01-22.8 166.58-21.9 165.48-20.1 164.38-18.3 163.98-15.55L163.98-15.55 174.88-16.15Q174.88-20 174.06-21.85 173.23-23.7 170.88-23.7Z" opacity="1" transform="matrix(1,0,0,1,0,0)" fill="#ffffff" class="wordmark-text-0" data-fill-palette-color="quaternary" id="text-0"></path></svg></g></svg></g></svg></g></svg></g><g transform="matrix(1,0,0,1,75.39823705465021,0)"><svg viewBox="0 0 62.36196711785669 64.30095522439369" height="64.30095522439369" width="62.36196711785669"><g><svg xmlns="http://www.w3.org/2000/svg" xmlns:xlink="http://www.w3.org/1999/xlink" version="1.1" x="0" y="0" viewBox="10.350000000000001 10.931139615647549 76.39359421734548 78.76886038435245" style="enable-background:new 0 0 100 100;" xml:space="preserve" height="64.30095522439369" width="62.36196711785669" class="icon-icon-0" data-fill-palette-color="quaternary" id="icon-0"><path d="M13.2 86.2L13.8 86.8C15.6 88.6 18.1 89.7 20.7 89.7S25.7 88.7 27.6 86.8L64.9 49.5 66.2 50.8C66.4 51 66.7 51.1 66.9 51.1S67.4 51 67.6 50.8C68 50.4 68 49.8 67.6 49.4L65.6 47.4 52.6 34.5 50.6 32.5C50.2 32.1 49.6 32.1 49.2 32.5S48.8 33.5 49.2 33.9L50.5 35.2 13.2 72.5C9.4 76.3 9.4 82.4 13.2 86.2M14.6 73.9L22.7 65.8 26.3 69.4C26.5 69.6 26.8 69.7 27 69.7S27.5 69.6 27.7 69.4C28.1 69 28.1 68.4 27.7 68L24.1 64.4 26.8 61.7 30.4 65.3C30.6 65.5 30.9 65.6 31.1 65.6S31.6 65.5 31.8 65.3C32.2 64.9 32.2 64.3 31.8 63.9L28.2 60.3 30.9 57.6 34.5 61.2C34.7 61.4 35 61.5 35.2 61.5S35.7 61.4 35.9 61.2C36.3 60.8 36.3 60.2 35.9 59.8L32.3 56.2 35 53.5 38.6 57.1C38.8 57.3 39.1 57.4 39.3 57.4S39.8 57.3 40 57.1C40.4 56.7 40.4 56.1 40 55.7L36.4 52.1 39.1 49.4 42.7 53C42.9 53.2 43.2 53.3 43.4 53.3S43.9 53.2 44.1 53C44.5 52.6 44.5 52 44.1 51.6L40.5 48 43.2 45.3 46.8 48.9C47 49.1 47.3 49.2 47.5 49.2S48 49.1 48.2 48.9C48.6 48.5 48.6 47.9 48.2 47.5L44.6 43.9 51.8 36.7 63.3 48.2 26.2 85.4C24.7 86.9 22.8 87.7 20.7 87.7S16.7 86.9 15.2 85.4L14.6 84.8C11.6 81.8 11.6 76.9 14.6 73.9" fill="#ffffff" data-fill-palette-color="quaternary"></path><path d="M74.8 30.6C73.4 33.7 74.8 37.5 77.9 38.9 78.7 39.3 79.6 39.5 80.5 39.5 81.2 39.5 82 39.4 82.7 39.1 84.3 38.5 85.5 37.4 86.2 35.8 87.6 32.7 86.2 28.9 83.1 27.5 79.9 26.1 76.2 27.5 74.8 30.6M84.4 35C83.9 36 83.1 36.8 82 37.2S79.8 37.6 78.7 37.1C76.6 36.1 75.6 33.6 76.6 31.5 77.3 29.9 78.9 29 80.5 29 81.1 29 81.7 29.1 82.3 29.4 84.4 30.3 85.3 32.8 84.4 35" fill="#ffffff" data-fill-palette-color="quaternary"></path><path d="M80.4 31C80.2 31.5 80.4 32.1 80.9 32.3 81.1 32.4 81.3 32.6 81.4 32.9S81.5 33.4 81.4 33.7C81.2 34.2 81.4 34.8 81.9 35 82 35.1 82.2 35.1 82.3 35.1 82.7 35.1 83 34.9 83.2 34.5 83.5 33.8 83.6 32.9 83.3 32.2 83 31.4 82.5 30.8 81.7 30.5 81.2 30.3 80.6 30.5 80.4 31" fill="#ffffff" data-fill-palette-color="quaternary"></path><path d="M75.6 18.1C76.2 16.9 76.2 15.5 75.7 14.2S74.3 11.9 73 11.4C70.5 10.2 67.4 11.4 66.3 13.9 65.7 15.1 65.7 16.5 66.2 17.8S67.6 20.1 68.9 20.6C69.6 20.9 70.3 21.1 71 21.1 71.6 21.1 72.2 21 72.8 20.8 74 20.2 75.1 19.3 75.6 18.1M73.8 17.2C73.5 17.9 72.8 18.5 72.1 18.8S70.5 19.1 69.7 18.7C69 18.4 68.4 17.7 68.1 17 67.8 16.2 67.8 15.4 68.2 14.6 68.7 13.5 69.8 12.8 71 12.8 71.4 12.8 71.9 12.9 72.3 13.1 73 13.4 73.6 14.1 73.9 14.8S74.1 16.5 73.8 17.2" fill="#ffffff" data-fill-palette-color="quaternary"></path><path d="M72 13.7C71.5 13.5 70.9 13.7 70.7 14.2S70.7 15.3 71.2 15.5C71.5 15.6 71.6 16 71.5 16.2 71.3 16.7 71.5 17.3 72 17.5 72.1 17.6 72.3 17.6 72.4 17.6 72.8 17.6 73.1 17.4 73.3 17 73.6 16.4 73.6 15.7 73.4 15 73.1 14.5 72.7 14 72 13.7" fill="#ffffff" data-fill-palette-color="quaternary"></path><path d="M81.3 47.1C80.1 46.5 78.7 46.5 77.4 47S75.1 48.4 74.6 49.7C74 50.9 74 52.3 74.5 53.6S75.9 55.9 77.2 56.4C77.9 56.7 78.6 56.9 79.3 56.9 81.2 56.9 83.1 55.8 83.9 53.9 84.5 52.7 84.5 51.3 84 50 83.4 48.7 82.5 47.7 81.3 47.1M82 53C81.3 54.5 79.5 55.2 77.9 54.5 77.2 54.2 76.6 53.5 76.3 52.8S76 51.2 76.4 50.4C76.7 49.7 77.4 49.1 78.1 48.8 78.5 48.7 78.8 48.6 79.2 48.6S80.1 48.7 80.5 48.9C81.2 49.2 81.8 49.9 82.1 50.6 82.3 51.4 82.3 52.2 82 53" fill="#ffffff" data-fill-palette-color="quaternary"></path><path d="M80.2 49.4C79.7 49.2 79.1 49.4 78.9 49.9S78.9 51 79.4 51.2L79.7 51.5C79.8 51.6 79.7 51.8 79.7 51.9 79.5 52.4 79.7 53 80.2 53.2 80.3 53.3 80.5 53.3 80.6 53.3 81 53.3 81.3 53.1 81.5 52.7 81.8 52.1 81.8 51.4 81.6 50.7 81.3 50.2 80.8 49.7 80.2 49.4" fill="#ffffff" data-fill-palette-color="quaternary"></path><path d="M65.1 24.3C63.4 23.5 61.6 23.5 59.9 24.1S56.9 26 56.1 27.6 55.3 31.1 55.9 32.8 57.8 35.8 59.4 36.6C60.3 37 61.3 37.2 62.2 37.2 63 37.2 63.8 37.1 64.6 36.8 66.3 36.2 67.6 34.9 68.4 33.3 70 29.9 68.5 25.9 65.1 24.3M66.6 32.5C66.1 33.7 65.1 34.6 63.9 35S61.4 35.4 60.2 34.9 58.1 33.4 57.7 32.2 57.3 29.7 57.8 28.5 59.3 26.4 60.5 26C61 25.8 61.6 25.7 62.2 25.7 62.9 25.7 63.5 25.8 64.2 26.1 65.4 26.6 66.3 27.6 66.7 28.8 67.2 30 67.2 31.3 66.6 32.5" fill="#ffffff" data-fill-palette-color="quaternary"></path><path d="M63.6 27.6C63.1 27.4 62.5 27.6 62.3 28.1S62.3 29.2 62.8 29.4C63.4 29.7 63.7 30.4 63.4 31 63.2 31.5 63.4 32.1 63.9 32.3 64 32.4 64.2 32.4 64.3 32.4 64.7 32.4 65 32.2 65.2 31.8 65.9 30.3 65.2 28.4 63.6 27.6" fill="#ffffff" data-fill-palette-color="quaternary"></path><path d="M64.7 63C64.7 65.4 66.7 67.4 69.1 67.4S73.5 65.4 73.5 63 71.5 58.6 69.1 58.6 64.7 60.5 64.7 63M69.1 60.5C70.4 60.5 71.5 61.6 71.5 62.9S70.4 65.3 69.1 65.3 66.7 64.2 66.7 62.9 67.8 60.5 69.1 60.5" fill="#ffffff" data-fill-palette-color="quaternary"></path><path d="M44.3 19C44.3 21.4 46.3 23.4 48.7 23.4S53.1 21.4 53.1 19 51.1 14.6 48.7 14.6 44.3 16.6 44.3 19M51.2 19C51.2 20.3 50.1 21.4 48.8 21.4S46.4 20.3 46.4 19 47.5 16.6 48.8 16.6 51.2 17.7 51.2 19" fill="#ffffff" data-fill-palette-color="quaternary"></path><path d="M29.8 30.5C29.8 32.9 31.8 34.9 34.2 34.9S38.6 32.9 38.6 30.5 36.6 26.1 34.2 26.1 29.8 28.1 29.8 30.5M36.6 30.5C36.6 31.8 35.5 32.9 34.2 32.9S31.8 31.8 31.8 30.5 32.9 28.1 34.2 28.1 36.6 29.2 36.6 30.5" fill="#ffffff" data-fill-palette-color="quaternary"></path></svg></g></svg></g><g></g></svg></g></svg></g></svg></g></svg></g><defs></defs></svg><rect width="342.85155851775386" height="342.85155851775386" fill="none" stroke="none" visibility="hidden"></rect></g></svg></g></svg>